<?xml version="1.0" encoding="iso-8859-1"?>
<!-- Generator: Adobe Illustrator 21.0.0, SVG Export Plug-In . SVG Version: 6.00 Build 0)  -->
<svg version="1.1" id="Layer_1" xmlns="http://www.w3.org/2000/svg" xmlns:xlink="http://www.w3.org/1999/xlink" x="0px" y="0px"
	 viewBox="0 0 534 261" style="enable-background:new 0 0 534 261;" xml:space="preserve">
<g>
	<g>
		<path d="M23.871,174.305c15.988-47.488,26.091-96.778,30.132-146.72c-1,0-2,0-3,0c0.876,47.471,9.435,94.548,25.36,139.278
			c0.643,1.806,3.543,1.028,2.893-0.798c-15.839-44.489-24.382-91.262-25.253-138.48c-0.036-1.954-2.846-1.904-3,0
			c-4.019,49.677-14.123,98.69-30.025,145.923C20.361,175.341,23.258,176.128,23.871,174.305L23.871,174.305z"/>
	</g>
</g>
<g>
	<g>
		<path d="M25.044,128.696c26.067-6.694,52.135-13.388,78.202-20.081c1.869-0.48,1.077-3.374-0.798-2.893
			c-26.067,6.694-52.135,13.388-78.202,20.081C22.378,126.283,23.17,129.178,25.044,128.696L25.044,128.696z"/>
	</g>
</g>
<g>
	<g>
		<path d="M119.184,122.491c-6.117,0.116-9.777,4.724-12.109,9.961c-2.424,5.443-4.633,11.928-0.521,17.048
			c9.257,11.523,27.244,14.269,40.541,9.64c1.812-0.631,1.033-3.53-0.798-2.893c-10.384,3.615-22.027,2.501-31.335-3.508
			c-2.392-1.544-5.437-3.621-6.858-6.18c-1.642-2.954-0.639-6.273,0.334-9.255c1.665-5.105,4.493-11.695,10.746-11.813
			C121.112,125.454,121.118,122.454,119.184,122.491L119.184,122.491z"/>
	</g>
</g>
<g>
	<g>
		<path d="M175.313,120.117c-6.105-1.347-12.241,1.103-15.916,6.19c-4.282,5.927-3.726,13.987-0.364,20.206
			c8.855,16.38,31.706,17.577,47.916,16.278c1.911-0.153,1.928-3.155,0-3c-12.899,1.034-27.705,0.76-38.595-7.222
			c-5.43-3.979-9.465-10.439-9.014-17.365c0.497-7.63,7.444-13.9,15.176-12.194C176.397,123.425,177.201,120.534,175.313,120.117
			L175.313,120.117z"/>
	</g>
</g>
<g>
	<g>
		<path d="M223.832,130.4c-6.253,7.16-3.921,18.168,3.02,24.083c8.742,7.449,22.885,7.108,33.4,4.449
			c10.804-2.732,16.881-11.88,12.849-22.759c-3.938-10.627-15.469-17.159-26.527-16.947c-12.667,0.243-23.393,9.409-26.774,21.401
			c-0.525,1.861,2.369,2.656,2.893,0.798c3.168-11.238,13.458-19.64,25.36-19.185c11.554,0.441,25.672,10.423,23.159,23.476
			c-2.282,11.855-20.065,12.619-29.516,11.515c-6.288-0.734-12.723-3.276-16.141-8.89c-2.996-4.921-3.566-11.28,0.397-15.818
			C227.218,131.072,225.105,128.942,223.832,130.4L223.832,130.4z"/>
	</g>
</g>
<g>
	<g>
		<path d="M282.251,116.177c0.23,14.133,1.139,28.227,2.726,42.273c0.214,1.893,2.871,1.963,3,0
			c0.925-14.128,8.116-32.519,25.506-30.21c1.908,0.253,1.889-2.749,0-3c-19.068-2.533-27.484,17.603-28.506,33.21c1,0,2,0,3,0
			c-1.587-14.046-2.496-28.139-2.726-42.273C285.22,114.249,282.22,114.243,282.251,116.177L282.251,116.177z"/>
	</g>
</g>
<g>
	<g>
		<path d="M330.594,131.147c-7.761,3.931-14.362,11.882-11.348,21.046c2.209,6.717,10.291,10.506,16.515,6.29
			c3.134-2.123,4.026-5.571,4.238-9.156c0.395-6.697,0.386-13.223,1.887-19.823c2.859-12.577,9.871-24.068,21.855-29.649
			c1.749-0.814,0.227-3.401-1.514-2.59c-14.453,6.731-21.959,21.538-24.207,36.727c-0.635,4.293-0.857,8.598-0.964,12.931
			c-0.124,5.061-1.276,10.513-7.531,10.279c-6.289-0.235-9.023-7.104-7.645-12.541c1.315-5.19,5.684-8.622,10.228-10.924
			C333.831,132.865,332.314,130.276,330.594,131.147L330.594,131.147z"/>
	</g>
</g>
<g>
	<g>
		<path d="M335.881,155.598c5.088,6.123,12.306,9.609,20.244,9.952c1.93,0.084,1.926-2.917,0-3
			c-7.193-0.311-13.532-3.549-18.122-9.073C336.767,151.99,334.655,154.122,335.881,155.598L335.881,155.598z"/>
	</g>
</g>
<g>
	<g>
		<path d="M373.732,134.002c1.31,10.06-3.593,21.423,3.426,30.209c2.109,2.64,5.154,4.507,8.614,4.463
			c5.144-0.066,9.093-4.195,14.201-4.397c1.924-0.076,1.934-3.077,0-3c-7.794,0.309-15.615,9.175-21.443-0.351
			c-4.902-8.014-0.659-18.17-1.799-26.923C376.486,132.114,373.483,132.09,373.732,134.002L373.732,134.002z"/>
	</g>
</g>
<g>
	<g>
		<path d="M368.05,113.583c0.218,3.265,2.803,5.696,6.01,6.106c3.462,0.443,6.412-1.917,7.088-5.288
			c0.672-3.349-0.817-6.873-3.948-8.38c-3.359-1.616-7.43-0.692-10.028,1.877c-1.375,1.36,0.747,3.481,2.121,2.121
			c3.07-3.036,9.338-2.038,9.014,3.063c-0.12,1.894-1.329,3.668-3.37,3.68c-1.804,0.01-3.76-1.277-3.887-3.179
			C370.922,111.667,367.921,111.653,368.05,113.583L368.05,113.583z"/>
	</g>
</g>
<g>
	<g>
		<path d="M414.956,124.874c-2.938,5.073-0.053,9.945,3.032,14.215c5.115,7.08,8.598,13.865,9.008,22.808
			c0.982-0.133,1.964-0.266,2.946-0.399c-1.32-6.814-2.301-14.89-0.332-21.689c0.849-2.931,2.823-6.974,6.474-6.909
			c5.514,0.098,6.667,7.245,7.05,11.264c0.45,4.73,0.412,9.527,3.518,13.442c2.987,3.767,7.459,5.576,12.19,5.449
			c1.927-0.052,1.934-3.052,0-3c-6.12,0.164-10.798-3.531-12.101-9.533c-0.818-3.771-0.3-7.743-1.303-11.488
			c-1.278-4.774-4.975-9.787-10.497-9.043c-12.751,1.718-9.405,24.496-7.893,32.304c0.321,1.658,3.024,1.284,2.946-0.399
			c-0.263-5.742-1.567-11.284-4.169-16.431c-2.57-5.084-11.803-12.996-8.281-19.077
			C418.515,124.714,415.924,123.202,414.956,124.874L414.956,124.874z"/>
	</g>
</g>
<g>
	<g>
		<path d="M489.951,126.388c-5.417,1.241-11.726,3.382-14.237,8.855c-1.709,3.727-1.262,9.009,2.088,11.73
			c3.433,2.789,8.071,1.657,10.976-1.318c5.12-5.245,2.941-12.888,0.817-18.962c-0.63-1.802-3.459-1.071-2.893,0.798
			c4.867,16.058,10.488,35.963,1.412,51.591c-9.066,15.61-28.952,18.385-45.163,20.932c-43.059,6.763-86.221,12.865-129.467,18.3
			c-24.136,3.033-48.298,5.853-72.482,8.478c-1.899,0.206-1.92,3.208,0,3c45.887-4.98,91.694-10.686,137.397-17.139
			c23.025-3.251,46.037-6.64,68.998-10.321c15.632-2.506,33.299-6.241,42.541-20.485c10.622-16.37,4.865-37.971-0.342-55.153
			c-0.964,0.266-1.929,0.532-2.893,0.798c1.385,3.96,2.992,8.204,1.776,12.384c-1.442,4.957-8.085,8.385-10.444,2.057
			c-2.86-7.673,7.242-11.397,12.715-12.651C492.629,128.85,491.833,125.957,489.951,126.388L489.951,126.388z"/>
	</g>
</g>
<g>
	<g>
		<path d="M210.349,192.405c-1.62,9.926-1.561,19.803,0.187,29.708c0.335,1.898,3.227,1.094,2.893-0.798
			c-1.653-9.361-1.719-18.729-0.187-28.113C213.55,191.314,210.659,190.502,210.349,192.405L210.349,192.405z"/>
	</g>
</g>
<g>
	<g>
		<path d="M194.947,209.782c13.22-2.403,26.441-4.805,39.661-7.208c1.897-0.345,1.093-3.236-0.798-2.893
			c-13.22,2.403-26.441,4.805-39.661,7.208C192.252,207.234,193.056,210.125,194.947,209.782L194.947,209.782z"/>
	</g>
</g>
<g>
	<g>
		<path d="M224.54,212.035c-0.362,7.326,14.532,9.531,18.149,4.178c2.179-3.225,0.315-7.272-2.734-9.144
			c-4.695-2.882-10.034,0.041-13.891,2.965c-1.519,1.152-0.026,3.758,1.514,2.59c2.268-1.72,4.878-3.639,7.849-3.744
			c2.648-0.093,7.25,3.114,4.44,6.067c-2.251,2.365-12.523,1.056-12.327-2.913C227.635,210.106,224.635,210.111,224.54,212.035
			L224.54,212.035z"/>
	</g>
</g>
<g>
	<g>
		<path d="M260.233,186.161c9.403,0.377,18.666-0.514,27.829-2.644c1.88-0.437,1.084-3.33-0.798-2.893
			c-8.917,2.072-17.888,2.903-27.032,2.536C258.303,183.084,258.306,186.084,260.233,186.161L260.233,186.161z"/>
	</g>
</g>
<g>
	<g>
		<path d="M275.765,183.889c1.386,6.193,2.949,12.374,4.163,18.603c1.494,7.66-5.323,9.021-11.401,9.161
			c-1.927,0.044-1.934,3.044,0,3c5.021-0.115,12.09-0.909,14.267-6.296c1.119-2.77,0.226-5.742-0.389-8.523
			c-1.236-5.584-2.498-11.162-3.747-16.743C278.237,181.208,275.344,182.005,275.765,183.889L275.765,183.889z"/>
	</g>
</g>
<g>
	<g>
		<path d="M294.324,199.436c-4.809,1.416-3.986,8.797,0.736,9.743c2.913,0.584,5.739-1.233,7.215-3.676
			c2.28-3.772,1.029-8.383-0.161-12.28c-0.964,0.266-1.929,0.532-2.893,0.798c2.484,6.139,7.595,10.475,14.183,11.566
			c1.889,0.313,2.701-2.578,0.798-2.893c-5.48-0.907-9.981-4.264-12.088-9.471c-0.703-1.738-3.472-1.098-2.893,0.798
			c0.855,2.799,2.138,6.363,0.796,9.178c-0.684,1.435-2.852,4.263-4.944,2.873c-1.047-0.696-1.681-3.234,0.049-3.744
			C296.97,201.785,296.183,198.889,294.324,199.436L294.324,199.436z"/>
	</g>
</g>
<g>
	<g>
		<path d="M310.736,173.719c1.36,10.282,4.082,20.121,8.208,29.637c0.766,1.767,3.351,0.241,2.59-1.514
			c-3.902-8.998-6.512-18.399-7.798-28.122C313.487,171.832,310.484,171.807,310.736,173.719L310.736,173.719z"/>
	</g>
</g>
<g>
	<g>
		<path d="M318.049,187.835c0.676-1.881,3.158-2.026,4.366-0.675c-0.078-0.606-0.156-1.212-0.235-1.818
			c-1.657,2.382-4.079,3.58-6.954,3.594c-1.612,0.008-1.876,1.948-0.757,2.795c4.571,3.464,9.142,6.927,13.713,10.391
			c1.539,1.166,3.035-1.438,1.514-2.59c-4.571-3.464-9.142-6.927-13.713-10.391c-0.252,0.932-0.505,1.863-0.757,2.795
			c3.998-0.02,7.273-1.814,9.545-5.08c0.393-0.565,0.186-1.347-0.235-1.818c-2.834-3.173-7.995-1.857-9.38,1.998
			C314.502,188.858,317.4,189.642,318.049,187.835L318.049,187.835z"/>
	</g>
</g>
<g>
	<g>
		<path d="M338.31,194.356c4.469,0.291,8.557-1.241,11.81-4.3c0.591-0.556,0.559-1.56,0-2.121c-2.86-2.875-6.732-5.947-11.052-5.555
			c-3.443,0.313-5.922,3.056-6.284,6.409c-1.01,9.352,9.106,12.051,16.437,11.964c1.929-0.023,1.934-3.023,0-3
			c-5.034,0.06-12.32-0.673-13.388-6.793c-0.478-2.741,0.892-5.644,4.046-5.622c3.176,0.022,6.02,2.607,8.12,4.718
			c0-0.707,0-1.414,0-2.121c-2.705,2.544-5.996,3.662-9.689,3.421C336.383,191.231,336.391,194.231,338.31,194.356L338.31,194.356z"
			/>
	</g>
</g>
<g>
	<g>
		<path d="M355.589,186.629c0.981-0.374,2.008-0.708,3.075-0.689c2.002,0.036,2.023,0.711,1.413,2.553
			c-0.928,2.803-2.711,5.56-4.006,8.218c-0.37,0.76-0.139,2.061,0.896,2.203c5.178,0.712,10.039-0.094,14.665-2.55
			c1.706-0.906,0.192-3.496-1.514-2.59c-3.847,2.043-8.027,2.843-12.353,2.248c0.299,0.734,0.598,1.469,0.896,2.204
			c1.423-2.919,2.925-5.812,4.273-8.765c0.659-1.444,1.172-3.043,0.295-4.524c-1.651-2.788-5.942-2.15-8.437-1.199
			C353.005,184.417,353.78,187.319,355.589,186.629L355.589,186.629z"/>
	</g>
</g>
<g>
	<g>
		<path d="M294.149,201.689c0.939-1.352,1.878-2.704,2.817-4.056c0.462-0.666,0.122-1.666-0.538-2.052
			c-0.746-0.436-1.589-0.129-2.052,0.538c-0.939,1.352-1.878,2.704-2.817,4.056c-0.462,0.666-0.122,1.666,0.538,2.052
			C292.843,202.664,293.685,202.356,294.149,201.689L294.149,201.689z"/>
	</g>
</g>
</svg>
